<svg width="2000" height="600" viewBox="0 0 2000 600" fill="none" xmlns="http://www.w3.org/2000/svg">
<path d="M177.316 548.8C138.316 548.8 104.299 539.7 75.2659 521.5C46.6659 502.867 27.1659 477.95 16.7659 446.75L88.2659 412.95C97.3659 432.017 109.716 446.967 125.316 457.8C140.916 468.633 158.249 474.05 177.316 474.05C191.183 474.05 201.799 471.233 209.166 465.6C216.533 459.967 220.216 452.167 220.216 442.2C220.216 437 218.916 432.667 216.316 429.2C213.716 425.3 209.816 421.833 204.616 418.8C199.416 415.767 192.916 413.167 185.116 411L124.666 394.1C95.6325 385.867 73.3159 372.65 57.7159 354.45C42.1159 335.817 34.3159 313.933 34.3159 288.8C34.3159 266.7 39.9492 247.417 51.2159 230.95C62.4825 214.483 78.2992 201.7 98.6659 192.6C119.033 183.067 142.433 178.3 168.866 178.3C203.533 178.3 233.866 186.533 259.866 203C286.299 219.033 304.933 241.783 315.766 271.25L243.616 305.05C238.416 290.317 228.883 278.617 215.016 269.95C201.583 260.85 186.199 256.3 168.866 256.3C156.299 256.3 146.333 258.9 138.966 264.1C132.033 269.3 128.566 276.45 128.566 285.55C128.566 290.317 129.866 294.65 132.466 298.55C135.066 302.45 139.183 305.917 144.816 308.95C150.883 311.983 158.249 314.8 166.916 317.4L223.466 334.3C252.933 342.967 275.466 356.183 291.066 373.95C306.666 391.283 314.466 412.733 314.466 438.3C314.466 460.4 308.616 479.683 296.916 496.15C285.649 512.617 269.833 525.617 249.466 535.15C229.099 544.25 205.049 548.8 177.316 548.8Z" fill="#1DA1F2"/>
<path d="M548.887 548.8C513.787 548.8 481.721 540.783 452.687 524.75C424.087 508.717 401.121 486.833 383.787 459.1C366.887 430.933 358.437 399.083 358.437 363.55C358.437 327.583 366.887 295.733 383.787 268C401.121 240.267 424.087 218.383 452.687 202.35C481.721 186.317 513.787 178.3 548.887 178.3C583.987 178.3 615.837 186.317 644.437 202.35C673.037 218.383 695.787 240.267 712.687 268C730.021 295.733 738.687 327.583 738.687 363.55C738.687 399.083 730.021 430.933 712.687 459.1C695.787 486.833 673.037 508.717 644.437 524.75C615.837 540.783 583.987 548.8 548.887 548.8ZM548.887 461.05C566.654 461.05 582.037 456.933 595.037 448.7C608.471 440.467 618.871 428.983 626.237 414.25C634.037 399.517 637.937 382.617 637.937 363.55C637.937 344.483 634.037 327.8 626.237 313.5C618.871 298.767 608.471 287.283 595.037 279.05C582.037 270.383 566.654 266.05 548.887 266.05C531.121 266.05 515.521 270.383 502.087 279.05C488.654 287.283 478.037 298.767 470.237 313.5C462.871 327.8 459.187 344.483 459.187 363.55C459.187 382.617 462.871 399.517 470.237 414.25C478.037 428.983 488.654 440.467 502.087 448.7C515.521 456.933 531.121 461.05 548.887 461.05Z" fill="#1DA1F2"/>
<path d="M970.326 548.8C934.793 548.8 902.726 540.783 874.126 524.75C845.959 508.283 823.426 485.967 806.526 457.8C790.059 429.633 781.826 398 781.826 362.9C781.826 327.8 790.059 296.383 806.526 268.65C822.993 240.483 845.526 218.383 874.126 202.35C902.726 186.317 934.793 178.3 970.326 178.3C996.759 178.3 1021.24 182.85 1043.78 191.95C1066.31 201.05 1085.59 213.833 1101.63 230.3C1117.66 246.333 1129.14 265.4 1136.08 287.5L1051.58 323.9C1045.51 306.133 1035.11 292.05 1020.38 281.65C1006.08 271.25 989.393 266.05 970.326 266.05C953.426 266.05 938.259 270.167 924.826 278.4C911.826 286.633 901.426 298.117 893.626 312.85C886.259 327.583 882.576 344.483 882.576 363.55C882.576 382.617 886.259 399.517 893.626 414.25C901.426 428.983 911.826 440.467 924.826 448.7C938.259 456.933 953.426 461.05 970.326 461.05C989.826 461.05 1006.73 455.85 1021.03 445.45C1035.33 435.05 1045.51 420.967 1051.58 403.2L1136.08 440.25C1129.58 461.05 1118.31 479.683 1102.28 496.15C1086.24 512.617 1066.96 525.617 1044.43 535.15C1021.89 544.25 997.193 548.8 970.326 548.8Z" fill="#1DA1F2"/>
<path d="M1367.69 548.8C1332.16 548.8 1300.09 540.783 1271.49 524.75C1243.32 508.283 1220.79 485.967 1203.89 457.8C1187.42 429.633 1179.19 398 1179.19 362.9C1179.19 327.8 1187.42 296.383 1203.89 268.65C1220.36 240.483 1242.89 218.383 1271.49 202.35C1300.09 186.317 1332.16 178.3 1367.69 178.3C1394.12 178.3 1418.61 182.85 1441.14 191.95C1463.67 201.05 1482.96 213.833 1498.99 230.3C1515.02 246.333 1526.51 265.4 1533.44 287.5L1448.94 323.9C1442.87 306.133 1432.47 292.05 1417.74 281.65C1403.44 271.25 1386.76 266.05 1367.69 266.05C1350.79 266.05 1335.62 270.167 1322.19 278.4C1309.19 286.633 1298.79 298.117 1290.99 312.85C1283.62 327.583 1279.94 344.483 1279.94 363.55C1279.94 382.617 1283.62 399.517 1290.99 414.25C1298.79 428.983 1309.19 440.467 1322.19 448.7C1335.62 456.933 1350.79 461.05 1367.69 461.05C1387.19 461.05 1404.09 455.85 1418.39 445.45C1432.69 435.05 1442.87 420.967 1448.94 403.2L1533.44 440.25C1526.94 461.05 1515.67 479.683 1499.64 496.15C1483.61 512.617 1464.32 525.617 1441.79 535.15C1419.26 544.25 1394.56 548.8 1367.69 548.8Z" fill="#1DA1F2"/>
<path d="M1590.85 541V186.1H1688.35V541H1590.85ZM1639.6 154.25C1612.68 154.25 1590.85 132.424 1590.85 105.5V105.5C1590.85 78.5761 1612.68 56.75 1639.6 56.75V56.75C1666.53 56.75 1688.35 78.5761 1688.35 105.5V105.5C1688.35 132.424 1666.53 154.25 1639.6 154.25V154.25Z" fill="#1DA1F2"/>
<path d="M1930.65 544.9C1887.75 544.9 1854.38 533.417 1830.55 510.45C1807.15 487.05 1795.45 454.55 1795.45 412.95V270.6H1735.65V186.1H1738.9C1757.1 186.1 1770.97 181.55 1780.5 172.45C1790.47 163.35 1795.45 149.7 1795.45 131.5V105.5H1892.95V186.1H1976.15V270.6H1892.95V406.45C1892.95 418.583 1895.12 428.767 1899.45 437C1903.78 444.8 1910.5 450.65 1919.6 454.55C1928.7 458.45 1939.97 460.4 1953.4 460.4C1956.43 460.4 1959.9 460.183 1963.8 459.75C1967.7 459.317 1971.82 458.883 1976.15 458.45V541C1969.65 541.867 1962.28 542.733 1954.05 543.6C1945.82 544.467 1938.02 544.9 1930.65 544.9Z" fill="#1DA1F2"/>
<path d="M1639.6 154.25C1666.53 154.25 1688.35 132.424 1688.35 105.5C1688.35 78.5761 1666.53 56.75 1639.6 56.75C1612.68 56.75 1590.85 78.5761 1590.85 105.5C1590.85 132.424 1612.68 154.25 1639.6 154.25Z" fill="#1DA1F2"/>
</svg>
