<svg width="257" height="257" viewBox="0 0 257 257" fill="none" xmlns="http://www.w3.org/2000/svg">
<g clip-path="url(#clip0_320_1663)">
<path d="M128.5 0.5C57.8 0.5 0.5 57.8 0.5 128.5C0.5 163.9 14.8 195.9 38 219L13.6 243.4C8.8 248.2 12.2 256.5 19 256.5H128.5C199.2 256.5 256.5 199.2 256.5 128.5C256.5 57.8 199.2 0.5 128.5 0.5Z" fill="#1DA1F2"/>
<path d="M201.1 154.1C217.613 154.1 231 140.713 231 124.2C231 107.686 217.613 94.2998 201.1 94.2998C184.587 94.2998 171.2 107.686 171.2 124.2C171.2 140.713 184.587 154.1 201.1 154.1Z" fill="url(#paint0_radial_320_1663)"/>
<path d="M55.9 154.1C72.4133 154.1 85.8 140.713 85.8 124.2C85.8 107.686 72.4133 94.2998 55.9 94.2998C39.3867 94.2998 26 107.686 26 124.2C26 140.713 39.3867 154.1 55.9 154.1Z" fill="url(#paint1_radial_320_1663)"/>
<path d="M128.6 213.8C175.71 213.8 213.9 185.146 213.9 149.8C213.9 114.454 175.71 85.7998 128.6 85.7998C81.4902 85.7998 43.3 114.454 43.3 149.8C43.3 185.146 81.4902 213.8 128.6 213.8Z" fill="url(#paint2_radial_320_1663)"/>
<path d="M103.3 143.6C102.8 154.4 95.6 158.4 87.2 158.4C78.8 158.4 72.4 152.8 72.9 142C73.4 131.2 80.6 124 89 124C97.4 124 103.8 132.8 103.3 143.6Z" fill="#842123"/>
<path d="M184.1 142C184.6 152.8 178.2 158.4 169.8 158.4C161.4 158.4 154.2 154.5 153.7 143.6C153.2 132.8 159.6 124 168 124C176.4 124 183.6 131.1 184.1 142Z" fill="#842123"/>
<path d="M154.029 144.7C154.529 154.8 161.229 158.5 169.029 158.5C176.829 158.5 182.829 153 182.429 142.8C181.929 132.7 175.229 126 167.429 126C159.629 126 153.529 134.5 154.029 144.7Z" fill="url(#paint3_radial_320_1663)"/>
<path d="M103.3 144.6C102.8 154.7 96.1001 158.4 88.3001 158.4C80.5001 158.4 74.5001 152.9 75.0001 142.7C75.5001 132.6 82.2001 125.9 90.0001 125.9C97.8001 125.9 103.8 134.4 103.3 144.6Z" fill="url(#paint4_radial_320_1663)"/>
<path d="M128.6 165.6C118 165.6 107.9 166.1 98.5 167C96.9 167.2 95.9 168.8 96.5 170.2C101.7 182.5 114.1 191.2 128.6 191.2C143.1 191.2 155.4 182.6 160.7 170.2C161.3 168.7 160.3 167.1 158.7 167C149.3 166.1 139.2 165.6 128.6 165.6Z" fill="#BBCFDA"/>
<path d="M128.6 168C118 168 107.9 168.5 98.6001 169.5C97.0001 169.7 96.0001 171.3 96.6001 172.8C101.8 185.3 114.2 194.1 128.6 194.1C143 194.1 155.4 185.3 160.6 172.8C161.2 171.3 160.2 169.7 158.6 169.5C149.2 168.5 139.1 168 128.6 168Z" fill="white"/>
<path d="M128.6 166.7C118.2 166.7 108.3 167.2 99.1001 168.1C97.5001 168.3 96.5001 169.9 97.1001 171.3C102.3 183.6 114.4 192.3 128.6 192.3C142.8 192.3 154.9 183.7 160.1 171.3C160.7 169.8 159.7 168.2 158.1 168.1C148.9 167.3 139 166.7 128.6 166.7Z" fill="url(#paint5_radial_320_1663)"/>
<path d="M175.3 77.1998C187.009 77.1998 196.5 67.7082 196.5 55.9998C196.5 44.2914 187.009 34.7998 175.3 34.7998C163.592 34.7998 154.1 44.2914 154.1 55.9998C154.1 67.7082 163.592 77.1998 175.3 77.1998Z" fill="url(#paint6_radial_320_1663)"/>
<path d="M128.3 88.4999C125.8 88.4999 123.7 87.3999 123.7 85.7999C123.7 66.7999 139.1 51.3999 158.1 51.3999C160.6 51.3999 162.7 53.4999 162.7 55.9999C162.7 58.4999 160.6 60.5999 158.1 60.5999C144.2 60.5999 132.9 71.8999 132.9 85.7999C132.9 87.4999 130.8 88.4999 128.3 88.4999Z" fill="url(#paint7_radial_320_1663)"/>
<path d="M97.8 149.6C97.8 153.5 93.6 155.3 88.5 155.3C83.4 155.3 79.2 153.5 79.2 149.6C79.2 145.7 83.4 142.5 88.5 142.5C93.6 142.5 97.8 145.6 97.8 149.6Z" fill="#9EDAFF"/>
<path d="M178.229 149.7C178.229 153.6 174.029 155.4 168.929 155.4C163.829 155.4 159.629 153.6 159.629 149.7C159.629 145.8 163.829 142.6 168.929 142.6C174.029 142.6 178.229 145.7 178.229 149.7Z" fill="#9EDAFF"/>
<path d="M94.9001 138.9C96.7226 138.9 98.2001 137.288 98.2001 135.3C98.2001 133.311 96.7226 131.7 94.9001 131.7C93.0776 131.7 91.6001 133.311 91.6001 135.3C91.6001 137.288 93.0776 138.9 94.9001 138.9Z" fill="#DBF9FF"/>
<path d="M94.9001 138.9C96.7226 138.9 98.2001 137.288 98.2001 135.3C98.2001 133.311 96.7226 131.7 94.9001 131.7C93.0776 131.7 91.6001 133.311 91.6001 135.3C91.6001 137.288 93.0776 138.9 94.9001 138.9Z" fill="#DAF1FF"/>
<path d="M173.8 138.9C175.623 138.9 177.1 137.288 177.1 135.3C177.1 133.311 175.623 131.7 173.8 131.7C171.977 131.7 170.5 133.311 170.5 135.3C170.5 137.288 171.977 138.9 173.8 138.9Z" fill="#DAF1FF"/>
</g>
<defs>
<radialGradient id="paint0_radial_320_1663" cx="0" cy="0" r="1" gradientUnits="userSpaceOnUse" gradientTransform="translate(201.512 108.057) scale(59.9015 52.2545)">
<stop stop-color="#FEFFFF"/>
<stop offset="0.4" stop-color="#FEFFFF"/>
<stop offset="0.51" stop-color="#F9FCFC"/>
<stop offset="0.62" stop-color="#EDF3F5"/>
<stop offset="0.7" stop-color="#DEE9EC"/>
<stop offset="0.72" stop-color="#D8E4E8"/>
<stop offset="0.76" stop-color="#CCD8DF"/>
<stop offset="0.8" stop-color="#C8D5DD"/>
<stop offset="0.83" stop-color="#CCD6DE"/>
<stop offset="0.85" stop-color="#D8DBE2"/>
<stop offset="0.88" stop-color="#EDE3E9"/>
<stop offset="0.9" stop-color="#FFEBEF"/>
</radialGradient>
<radialGradient id="paint1_radial_320_1663" cx="0" cy="0" r="1" gradientUnits="userSpaceOnUse" gradientTransform="translate(56.3918 108.057) scale(59.9015 52.2545)">
<stop stop-color="#FEFFFF"/>
<stop offset="0.4" stop-color="#FEFFFF"/>
<stop offset="0.51" stop-color="#F9FCFC"/>
<stop offset="0.62" stop-color="#EDF3F5"/>
<stop offset="0.7" stop-color="#DEE9EC"/>
<stop offset="0.72" stop-color="#D8E4E8"/>
<stop offset="0.76" stop-color="#CCD8DF"/>
<stop offset="0.8" stop-color="#C8D5DD"/>
<stop offset="0.83" stop-color="#CCD6DE"/>
<stop offset="0.85" stop-color="#D8DBE2"/>
<stop offset="0.88" stop-color="#EDE3E9"/>
<stop offset="0.9" stop-color="#FFEBEF"/>
</radialGradient>
<radialGradient id="paint2_radial_320_1663" cx="0" cy="0" r="1" gradientUnits="userSpaceOnUse" gradientTransform="translate(130.847 99.6757) scale(180.687 126.865)">
<stop stop-color="#FEFFFF"/>
<stop offset="0.4" stop-color="#FEFFFF"/>
<stop offset="0.51" stop-color="#F9FCFC"/>
<stop offset="0.62" stop-color="#EDF3F5"/>
<stop offset="0.7" stop-color="#DEE9EC"/>
<stop offset="0.72" stop-color="#D8E4E8"/>
<stop offset="0.76" stop-color="#CCD8DF"/>
<stop offset="0.8" stop-color="#C8D5DD"/>
<stop offset="0.83" stop-color="#CCD6DE"/>
<stop offset="0.85" stop-color="#D8DBE2"/>
<stop offset="0.88" stop-color="#EDE3E9"/>
<stop offset="0.9" stop-color="#FFEBEF"/>
</radialGradient>
<radialGradient id="paint3_radial_320_1663" cx="0" cy="0" r="1" gradientUnits="userSpaceOnUse" gradientTransform="translate(166.009 151.571) rotate(180) scale(15.0964 22.1628)">
<stop stop-color="#9CD9FF"/>
<stop offset="0.5" stop-color="#81CFFF"/>
<stop offset="0.7" stop-color="#60C3FF"/>
<stop offset="0.82" stop-color="#3FB6FF"/>
<stop offset="0.92" stop-color="#1DA1F2"/>
<stop offset="1" stop-color="#1795E3"/>
</radialGradient>
<radialGradient id="paint4_radial_320_1663" cx="0" cy="0" r="1" gradientUnits="userSpaceOnUse" gradientTransform="translate(86.9418 151.471) rotate(180) scale(15.049 22.1628)">
<stop stop-color="#9CD9FF"/>
<stop offset="0.5" stop-color="#81CFFF"/>
<stop offset="0.7" stop-color="#60C3FF"/>
<stop offset="0.82" stop-color="#3FB6FF"/>
<stop offset="0.92" stop-color="#1DA1F2"/>
<stop offset="1" stop-color="#1795E3"/>
</radialGradient>
<radialGradient id="paint5_radial_320_1663" cx="0" cy="0" r="1" gradientUnits="userSpaceOnUse" gradientTransform="translate(128.869 195.407) scale(53.2322 35.1106)">
<stop stop-color="#172E35"/>
<stop offset="0.29" stop-color="#0E1C21"/>
<stop offset="0.73" stop-color="#030708"/>
<stop offset="1"/>
</radialGradient>
<radialGradient id="paint6_radial_320_1663" cx="0" cy="0" r="1" gradientUnits="userSpaceOnUse" gradientTransform="translate(175.812 34.6059) scale(46.7274 46.7274)">
<stop stop-color="#FEFFFF"/>
<stop offset="0.4" stop-color="#FEFFFF"/>
<stop offset="0.51" stop-color="#F9FCFC"/>
<stop offset="0.62" stop-color="#EDF3F5"/>
<stop offset="0.7" stop-color="#DEE9EC"/>
<stop offset="0.72" stop-color="#D8E4E8"/>
<stop offset="0.76" stop-color="#CCD8DF"/>
<stop offset="0.8" stop-color="#C8D5DD"/>
<stop offset="0.83" stop-color="#CCD6DE"/>
<stop offset="0.85" stop-color="#D8DBE2"/>
<stop offset="0.88" stop-color="#EDE3E9"/>
<stop offset="0.9" stop-color="#FFEBEF"/>
</radialGradient>
<radialGradient id="paint7_radial_320_1663" cx="0" cy="0" r="1" gradientUnits="userSpaceOnUse" gradientTransform="translate(156.34 85.5458) scale(38.3003)">
<stop offset="0.48" stop-color="#7A9299"/>
<stop offset="0.67" stop-color="#172E35"/>
<stop offset="0.75"/>
<stop offset="0.82" stop-color="#172E35"/>
</radialGradient>
<clipPath id="clip0_320_1663">
<rect width="256" height="256" fill="white" transform="translate(0.5 0.5)"/>
</clipPath>
</defs>
</svg>
